<svg width="90" height="90" viewBox="0 0 90 90" fill="none" xmlns="http://www.w3.org/2000/svg">
<path d="M45.0016 83.3782C32.636 83.3782 21.6141 77.4905 14.5934 68.3675C15.6693 68.3675 16.7923 68.4244 17.9748 68.5708C18.0121 68.5708 18.0615 68.5708 18.0988 68.5807H18.1682C18.2648 68.5906 18.3715 68.5807 18.4781 68.5708C20.0473 68.4343 21.1877 67.1652 21.3339 65.4422C21.3339 65.4125 21.3339 65.3653 21.3339 65.3355L21.3439 65.162V65.085C21.3439 63.3497 20.3274 61.9366 18.8152 61.5499C18.7184 61.53 18.6119 61.5102 18.5053 61.5003C18.2847 61.4824 18.1781 61.4533 18.1087 61.4136C18.022 60.7641 17.955 60.1171 17.955 59.4874C17.955 55.149 19.8515 49.7843 23.756 43.0834C23.8799 42.8802 23.8799 42.9472 23.9295 42.724L24.1526 41.5043C24.1626 41.4275 24.1725 41.3879 24.1725 41.368C24.1725 41.3208 24.1526 41.3307 24.1229 41.1747L24.0832 40.9615C24.0654 40.8078 24.0164 40.6516 23.9593 40.5078C23.7931 40.1186 23.523 39.7517 23.2032 39.412C24.056 39.2583 24.7922 38.8617 25.3327 38.2221C25.3823 38.1626 25.4293 38.1055 25.4689 38.046C25.4689 38.046 25.5358 37.9393 25.5855 37.8724C25.7888 37.689 25.9624 37.4956 26.0789 37.2428C26.0789 37.2428 26.2524 36.8759 26.3218 36.7296C26.3986 36.6031 26.602 36.2834 26.602 36.2834C26.6218 36.2461 26.6416 36.2163 26.6591 36.1767L26.9789 35.5867C27.0185 35.5198 27.0681 35.4032 27.0953 35.3264C27.0953 35.3264 27.125 35.2569 27.135 35.2397C33.7293 38.5517 40.3533 61.1236 41.1268 69.7904C41.1268 69.7233 41.1189 69.6638 41.1189 69.6069C41.1189 71.2729 41.9989 72.6958 43.355 73.2586C43.9351 73.4991 44.5549 73.5387 45.1945 73.3925C45.4275 73.3355 45.6506 73.2388 45.8539 73.1123L46.4142 72.7429C46.7538 72.5223 47.1306 72.1728 48.5362 70.8836L54.2381 65.6355C54.181 65.695 54.1413 65.7223 54.0745 65.7719C55.7702 64.5522 56.1172 62.9532 56.3106 62.1029C56.3106 62.093 56.3304 61.9962 56.3304 61.9962C56.3602 61.86 56.38 61.7136 56.38 61.5599C56.38 61.3937 56.3602 61.2302 56.3106 61.074L56.3007 61.0169C56.2828 60.9302 56.2438 60.8037 56.214 60.7169C55.3339 58.4882 54.3448 56.0885 53.0185 53.5995C52.4285 52.4071 52.1186 51.2568 52.1186 50.114C52.1186 48.7678 52.5152 47.4787 52.9714 45.9962C53.4548 44.4196 53.9977 42.6371 54.1613 40.5076C54.1713 40.458 54.1713 40.4009 54.1713 40.3414C54.1713 40.1778 54.1514 39.9943 54.1241 39.8481C54.1042 39.7315 54.0546 39.6249 54.0275 39.5183C54.0747 39.5382 54.1241 39.5679 54.1812 39.5878C54.5406 39.6919 55.5471 39.9447 56.4371 39.6919C56.6206 39.6447 56.7867 39.5481 56.9503 39.4712C56.9404 39.4812 56.9404 39.4812 56.9305 39.4891C56.9404 39.4812 56.9602 39.4712 56.9701 39.4617C57.1833 39.3651 57.3866 39.2684 57.58 39.1221C57.7535 39.2387 57.9494 39.4221 58.1601 39.7989C61.2217 44.7198 63.738 50.3646 65.6667 56.6218C65.9865 58.1811 66.1303 59.2546 66.1303 60.0677C66.1303 61.1139 65.8997 61.4337 65.7931 61.5601C65.6468 61.6864 65.2899 62.0037 65.2899 62.0037C64.2809 62.8962 63.2546 63.806 62.4216 64.2894L62.325 64.339C61.8614 64.6192 61.5119 65.0852 61.3755 65.6083L61.3577 65.695C61.2684 66.0247 61.1445 66.5279 61.1445 67.108C61.1445 68.1443 61.5411 68.831 61.8708 69.2301C62.3543 69.8102 63.2839 70.487 64.9697 70.363L65.0563 70.3531C65.4629 70.3234 65.8596 70.177 66.1794 69.9168L66.2462 69.8573C67.156 69.1409 68.3955 68.5509 70.0144 68.0774C72.2207 67.6807 74.1767 67.5815 75.9889 67.6014C69.0079 77.1507 57.7167 83.3782 45.0016 83.3782ZM14.699 21.4982C14.6024 21.7784 14.5453 22.0486 14.5453 22.3015V22.5246C14.5453 23.5509 15.2989 24.4111 16.3079 24.5475L16.531 24.5772C19.734 25.021 19.7736 26.0399 19.7736 27.0265C19.7637 27.0934 19.7538 27.2893 19.7439 27.4827C18.8737 30.7947 17.9441 32.6044 17.0714 34.0472L17.0342 34.1143C16.8408 34.4341 16.7416 34.7936 16.7416 35.1704V35.2398C16.7416 36.0132 17.0912 36.6925 17.5944 37.2528C16.7342 37.4462 16.0153 37.9395 15.6087 38.6956C15.5714 38.7626 15.5319 38.842 15.5121 38.9088L15.4847 38.9756C15.4649 39.0252 15.4451 39.0724 15.4252 39.122C13.5858 44.8833 11.4736 50.7339 8.78383 57.5018C8.77391 57.5216 8.76399 57.5414 8.75408 57.5613C7.3782 53.6196 6.62208 49.3977 6.62208 44.9999C6.62208 36.1496 9.64416 27.9959 14.699 21.4982ZM83.3764 44.9999C83.3764 48.9986 82.7567 52.8535 81.6237 56.4853C78.8249 45.8328 73.7601 34.687 69.8209 27.5993C69.511 26.2234 69.4143 24.731 69.3251 23.2882C69.3251 23.2684 69.2382 21.9223 69.2283 21.7289C69.2382 21.5653 69.2581 21.0422 69.2581 21.0422C69.2581 21.0124 69.2581 20.9754 69.2581 20.9357C69.2581 19.4929 68.8118 18.417 67.9218 17.7303C66.9253 16.9642 65.6064 16.8775 64.0099 17.47C63.3306 17.7104 62.4976 17.5939 61.444 17.4402C61.4639 17.4402 61.4813 17.4402 61.5012 17.4501C59.1882 17.0336 57.5892 16.9171 55.8935 16.8006C52.698 16.5205 52.698 16.5205 52.6112 16.5205C50.9552 16.5205 49.7653 17.9038 49.3488 19.1929C49.319 19.2897 49.2893 19.3863 49.2794 19.4929L49.1927 20.016C49.1828 20.1125 49.1748 20.2292 49.1748 20.3358V20.3655C49.1828 21.4018 49.6682 22.3116 50.4912 22.8718L51.8473 23.7742C51.8473 23.7742 53.4636 24.8774 54.1231 25.3137C54.7899 26.1839 54.9362 26.7937 54.956 27.297C54.7997 27.5498 54.6362 27.8027 54.6362 27.8027C53.6768 29.2926 52.7769 30.6883 51.7308 31.7518C51.701 31.7717 51.6713 31.8014 51.6613 31.8213L51.3242 32.1882C50.9647 32.565 50.3846 33.1847 50.2185 34.2507C50.2007 34.3572 50.1912 34.4738 50.1912 34.5804C50.1912 34.7837 50.2384 34.9771 50.2681 35.1804C50.0251 35.0737 49.7945 34.987 49.5516 34.9374C48.3492 34.6474 47.1989 35.0267 46.4726 35.9365C46.3264 36.1199 46.19 36.3431 46.1131 36.5563L46.0834 36.6332C45.9767 36.9431 45.8801 37.1662 45.7735 37.3992C45.3297 36.6233 43.3837 33.2542 43.3837 33.2542C37.2628 22.4282 34.4541 18.0204 31.3751 18.127C31.3156 18.127 31.2586 18.1369 31.2015 18.1369C26.9103 18.6402 23.7643 18.4096 19.0863 17.9634C19.0467 17.9535 19.0096 17.9535 18.9697 17.9535L18.9029 17.9436C18.7964 17.9436 18.7071 17.9535 18.6103 17.9634C18.2038 18.0106 17.7972 18.1667 17.4006 18.3799C24.3841 11.146 34.1739 6.62416 45 6.62416C66.1588 6.62416 83.3764 23.841 83.3764 44.9999ZM89.2067 64.183L89.1769 64.1557C88.3638 63.3128 87.5011 62.6162 86.6681 61.9964C88.82 56.7457 90 51.0142 90 45C90 20.1424 69.8576 0 45 0C20.1498 0 0 20.1424 0 45C0 51.6909 1.47009 58.0448 4.09542 63.7491C3.37897 64.3689 2.57575 64.9093 1.63618 65.3456C1.6461 65.3456 1.54952 65.3853 1.54952 65.3853C1.22972 65.5291 0.976851 65.7423 0.763652 66.0249L0.706534 66.1118C0.24047 66.7514 0 67.5149 0 68.3181C0 69.1511 0.260302 69.9568 0.74372 70.5765C1.60643 71.7169 3.02942 72.1334 4.3458 71.65C4.54155 71.573 4.78212 71.4467 4.94822 71.3203C5.72168 70.7203 6.56457 70.2171 7.45455 69.8006C15.5115 81.9728 29.3224 90 45 90C61.1536 90 75.3091 81.4795 83.252 68.7073C83.8321 68.8908 84.4122 69.104 84.9848 69.3643C85.0717 69.394 85.1584 69.4337 85.2452 69.4611C86.8342 69.9271 88.4308 69.4908 89.3331 68.348C89.7769 67.7778 90 67.1084 90 66.392C90 65.7821 89.8364 65.1624 89.5067 64.5996C89.4299 64.4558 89.3133 64.2996 89.2067 64.183Z" fill="#5B10BB"/>
</svg>
